<svg xmlns="http://www.w3.org/2000/svg" viewBox="0 0 120 160">
  <defs>
    <linearGradient id="bg" x1="0" y1="0" x2="0" y2="1">
      <stop offset="0" stop-color="#2a0000"/>
      <stop offset="1" stop-color="#0d0d0d"/>
    </linearGradient>
  </defs>
  <rect width="120" height="160" fill="url(#bg)"/>
  <rect x="3" y="3" width="114" height="154" fill="none" stroke="#e74c3c" stroke-width="2" opacity="0.55"/>
  <rect x="7" y="7" width="106" height="146" fill="none" stroke="#e74c3c" stroke-width="0.75" opacity="0.3"/>
  <circle cx="3" cy="3" r="3" fill="#e74c3c" opacity="0.55"/>
  <circle cx="117" cy="3" r="3" fill="#e74c3c" opacity="0.55"/>
  <circle cx="3" cy="157" r="3" fill="#e74c3c" opacity="0.55"/>
  <circle cx="117" cy="157" r="3" fill="#e74c3c" opacity="0.55"/>

  <path d="M24,98 L96,98 L116,160 L4,160 Z" fill="#3d0000"/>
  <path d="M48,98 Q60,112 72,98" stroke="#e74c3c" stroke-width="3" fill="none"/>

  <path d="M34,54 C30,20 90,20 86,54 L90,130 L78,126 L74,98 L70,128 L60,138 L50,128 L46,98 L42,126 L30,130 Z" fill="#e8e3d3"/><path d="M38,48 C38,24 82,24 82,48 C82,35 73,29 60,29 C47,29 38,35 38,48Z" fill="#e8e3d3"/><circle cx="74" cy="100" r="2.5" fill="#c9a84c"/><circle cx="46" cy="100" r="2.5" fill="#c9a84c"/>

  <rect x="50" y="74" width="20" height="18" fill="#e8c39e"/>
  <ellipse cx="39" cy="58" rx="3" ry="4" fill="#e8c39e"/>
  <ellipse cx="81" cy="58" rx="3" ry="4" fill="#e8c39e"/>
  <ellipse cx="60" cy="58" rx="19" ry="22" fill="#e8c39e"/>

  <ellipse cx="52" cy="55" rx="2.2" ry="3" fill="#1a1a1a"/>
  <ellipse cx="68" cy="55" rx="2.2" ry="3" fill="#1a1a1a"/>
  <path d="M47,49 q5,-3 10,0" stroke="#e8e3d3" stroke-width="1.5" fill="none"/>
  <path d="M63,49 q5,-3 10,0" stroke="#e8e3d3" stroke-width="1.5" fill="none"/>
  <path d="M53,66 q7,3 14,0" stroke="#3a1f14" stroke-width="1.5" fill="none"/>

  

  

  <path d="M40,38 Q60,29 80,38" stroke="#e74c3c" stroke-width="3" fill="none"/><circle cx="60" cy="33" r="2.5" fill="#e74c3c"/>
</svg>