<svg xmlns="http://www.w3.org/2000/svg" viewBox="0 0 120 160">
  <defs>
    <linearGradient id="bg" x1="0" y1="0" x2="0" y2="1">
      <stop offset="0" stop-color="#1a1a1a"/>
      <stop offset="1" stop-color="#0d0d0d"/>
    </linearGradient>
  </defs>
  <rect width="120" height="160" fill="url(#bg)"/>
  <rect x="3" y="3" width="114" height="154" fill="none" stroke="#bdc3c7" stroke-width="2" opacity="0.55"/>
  <rect x="7" y="7" width="106" height="146" fill="none" stroke="#bdc3c7" stroke-width="0.75" opacity="0.3"/>
  <circle cx="3" cy="3" r="3" fill="#bdc3c7" opacity="0.55"/>
  <circle cx="117" cy="3" r="3" fill="#bdc3c7" opacity="0.55"/>
  <circle cx="3" cy="157" r="3" fill="#bdc3c7" opacity="0.55"/>
  <circle cx="117" cy="157" r="3" fill="#bdc3c7" opacity="0.55"/>

  <path d="M30,98 L90,98 L106,160 L14,160 Z" fill="#2a2a2a"/>
  <path d="M50,98 L60,106 L70,98" stroke="#bdc3c7" stroke-width="3" fill="none"/>

  

  <rect x="50" y="74" width="20" height="18" fill="#e0b08c"/>
  <ellipse cx="39" cy="58" rx="3" ry="4" fill="#e0b08c"/>
  <ellipse cx="81" cy="58" rx="3" ry="4" fill="#e0b08c"/>
  <ellipse cx="60" cy="58" rx="19" ry="22" fill="#e0b08c"/>

  <ellipse cx="52" cy="55" rx="2.2" ry="3" fill="#1a1a1a"/>
  <ellipse cx="68" cy="55" rx="2.2" ry="3" fill="#1a1a1a"/>
  <path d="M47,49 q5,-3 10,0" stroke="#1c1c1c" stroke-width="1.5" fill="none"/>
  <path d="M63,49 q5,-3 10,0" stroke="#1c1c1c" stroke-width="1.5" fill="none"/>
  <path d="M53,66 q7,3 14,0" stroke="#3a1f14" stroke-width="1.5" fill="none"/>

  

  <ellipse cx="55" cy="40" rx="6" ry="3" fill="#ffffff" opacity="0.08"/>

  
</svg>